<svg width="25" height="24" viewBox="0 0 25 24" fill="none" xmlns="http://www.w3.org/2000/svg">
<g clip-path="url(#clip0_134_308)">
<path d="M3.6665 7C3.6665 6.46957 3.87722 5.96086 4.25229 5.58579C4.62736 5.21071 5.13607 5 5.6665 5H19.6665C20.1969 5 20.7056 5.21071 21.0807 5.58579C21.4558 5.96086 21.6665 6.46957 21.6665 7V17C21.6665 17.5304 21.4558 18.0391 21.0807 18.4142C20.7056 18.7893 20.1969 19 19.6665 19H5.6665C5.13607 19 4.62736 18.7893 4.25229 18.4142C3.87722 18.0391 3.6665 17.5304 3.6665 17V7Z" stroke="white" stroke-width="2" stroke-linecap="round" stroke-linejoin="round"/>
<path d="M3.6665 7L12.6665 13L21.6665 7" stroke="white" stroke-width="2" stroke-linecap="round" stroke-linejoin="round"/>
</g>
<defs>
<clipPath id="clip0_134_308">
<rect width="24" height="24" fill="white" transform="translate(0.666504)"/>
</clipPath>
</defs>
</svg>
