<svg width="25" height="24" viewBox="0 0 25 24" fill="none" xmlns="http://www.w3.org/2000/svg">
<g clip-path="url(#clip0_134_299)">
<path d="M7.33325 11V19C7.33325 19.2652 7.22789 19.5196 7.04036 19.7071C6.85282 19.8946 6.59847 20 6.33325 20H4.33325C4.06804 20 3.81368 19.8946 3.62615 19.7071C3.43861 19.5196 3.33325 19.2652 3.33325 19V12C3.33325 11.7348 3.43861 11.4804 3.62615 11.2929C3.81368 11.1054 4.06804 11 4.33325 11H7.33325ZM7.33325 11C8.39412 11 9.41153 10.5786 10.1617 9.82843C10.9118 9.07828 11.3333 8.06087 11.3333 7V6C11.3333 5.46957 11.544 4.96086 11.919 4.58579C12.2941 4.21071 12.8028 4 13.3333 4C13.8637 4 14.3724 4.21071 14.7475 4.58579C15.1225 4.96086 15.3333 5.46957 15.3333 6V11H18.3333C18.8637 11 19.3724 11.2107 19.7475 11.5858C20.1225 11.9609 20.3333 12.4696 20.3333 13L19.3333 18C19.1894 18.6135 18.9166 19.1402 18.5559 19.501C18.1952 19.8617 17.7661 20.0368 17.3333 20H10.3333C9.5376 20 8.77454 19.6839 8.21193 19.1213C7.64932 18.5587 7.33325 17.7956 7.33325 17" stroke="white" stroke-width="2" stroke-linecap="round" stroke-linejoin="round"/>
</g>
<defs>
<clipPath id="clip0_134_299">
<rect width="24" height="24" fill="white" transform="translate(0.333252)"/>
</clipPath>
</defs>
</svg>
