<svg width="35" height="36" viewBox="0 0 35 36" fill="none" xmlns="http://www.w3.org/2000/svg">
<path d="M19.7086 2.58236C18.8684 0.311763 15.6569 0.311757 14.8167 2.58236L13.0941 7.2378C13.114 7.25317 13.1338 7.26901 13.1534 7.28532L18.1858 11.4624C18.6164 11.8198 19.1816 11.9712 19.7332 11.877L22.9817 11.3221C22.9093 11.1963 22.8471 11.0639 22.796 10.9258L19.7086 2.58236Z" fill="#080037"/>
<path d="M28.025 13.8314C28.0098 13.8511 27.9941 13.8707 27.978 13.8902L23.8009 18.9225C23.4435 19.3531 23.2921 19.9183 23.3863 20.4699L23.9413 23.7187C24.0668 23.6465 24.199 23.5843 24.3369 23.5333L32.6803 20.4459C34.9509 19.6057 34.9509 16.3942 32.6803 15.5541L28.025 13.8314Z" fill="#080037"/>
<path d="M21.4316 28.7615C21.412 28.7463 21.3925 28.7307 21.3731 28.7147L16.3408 24.5376C15.9102 24.1802 15.345 24.0288 14.7934 24.123L11.5437 24.6781C11.6161 24.8038 11.6783 24.9362 11.7294 25.0742L14.8167 33.4176C15.6569 35.6882 18.8684 35.6882 19.7086 33.4176L21.4316 28.7615Z" fill="#080037"/>
<path d="M6.50132 22.1689C6.51661 22.1491 6.53238 22.1294 6.54861 22.1098L10.7257 17.0775C11.083 16.6469 11.2345 16.0817 11.1403 15.5301L10.5852 12.2807C10.4593 12.3532 10.3268 12.4155 10.1885 12.4667L1.84504 15.5541C-0.425556 16.3943 -0.425564 19.6057 1.84503 20.4459L6.50132 22.1689Z" fill="#080037"/>
</svg>
