<svg width="151" height="36" viewBox="0 0 151 36" fill="none" xmlns="http://www.w3.org/2000/svg">
<path d="M19.7086 2.58236C18.8684 0.311763 15.6569 0.311757 14.8167 2.58236L13.0941 7.2378C13.114 7.25317 13.1338 7.26901 13.1534 7.28532L18.1858 11.4624C18.6164 11.8197 19.1816 11.9712 19.7332 11.877L22.9817 11.3221C22.9093 11.1963 22.8471 11.0639 22.796 10.9258L19.7086 2.58236Z" fill="#080037"/>
<path d="M28.025 13.8314C28.0098 13.8511 27.9941 13.8707 27.978 13.8902L23.8009 18.9225C23.4435 19.3531 23.2921 19.9183 23.3863 20.4699L23.9413 23.7187C24.0668 23.6465 24.199 23.5843 24.3369 23.5333L32.6803 20.4459C34.9509 19.6057 34.9509 16.3942 32.6803 15.5541L28.025 13.8314Z" fill="#080037"/>
<path d="M21.4316 28.7615C21.412 28.7463 21.3925 28.7307 21.3731 28.7147L16.3408 24.5376C15.9102 24.1802 15.345 24.0288 14.7934 24.123L11.5437 24.6781C11.6161 24.8038 11.6783 24.9362 11.7294 25.0742L14.8167 33.4176C15.6569 35.6882 18.8684 35.6882 19.7086 33.4176L21.4316 28.7615Z" fill="#080037"/>
<path d="M6.50132 22.1689C6.51661 22.1491 6.53238 22.1294 6.54861 22.1098L10.7257 17.0775C11.083 16.6469 11.2345 16.0817 11.1403 15.5301L10.5852 12.2807C10.4593 12.3532 10.3268 12.4155 10.1885 12.4667L1.84504 15.5541C-0.425556 16.3943 -0.425564 19.6057 1.84503 20.4459L6.50132 22.1689Z" fill="#080037"/>
<path d="M150.142 12.3347L143.531 28.0626H140.659L142.972 22.7429L138.693 12.3347H141.719L144.475 19.7939L147.27 12.3347H150.142Z" fill="#080037"/>
<path d="M135.596 14.5513V19.7168C135.596 20.0766 135.68 20.34 135.847 20.5071C136.027 20.6613 136.322 20.7384 136.733 20.7384H137.986V23.0127H136.29C134.016 23.0127 132.879 21.9077 132.879 19.6976V14.5513H131.606V12.3348H132.879V9.6942H135.596V12.3348H137.986V14.5513H135.596Z" fill="#080037"/>
<path d="M128.458 11.0626C127.983 11.0626 127.584 10.9149 127.263 10.6193C126.955 10.3109 126.8 9.93187 126.8 9.48213C126.8 9.0324 126.955 8.65976 127.263 8.36423C127.584 8.05584 127.983 7.90164 128.458 7.90164C128.933 7.90164 129.325 8.05584 129.634 8.36423C129.955 8.65976 130.116 9.0324 130.116 9.48213C130.116 9.93187 129.955 10.3109 129.634 10.6193C129.325 10.9149 128.933 11.0626 128.458 11.0626ZM129.788 12.3347V23.0127H127.09V12.3347H129.788Z" fill="#080037"/>
<path d="M124.424 8.74974V23.0127H121.725V8.74974H124.424Z" fill="#080037"/>
<path d="M107.968 17.6351C107.968 16.5558 108.18 15.5985 108.605 14.7633C109.041 13.928 109.626 13.2856 110.358 12.8358C111.104 12.3861 111.933 12.1612 112.845 12.1612C113.642 12.1612 114.335 12.3218 114.926 12.6431C115.53 12.9643 116.012 13.3691 116.372 13.8574V12.3347H119.09V23.0127H116.372V21.4514C116.025 21.9526 115.543 22.3702 114.926 22.7043C114.323 23.0255 113.622 23.1861 112.826 23.1861C111.926 23.1861 111.104 22.9548 110.358 22.4923C109.626 22.0297 109.041 21.3808 108.605 20.5455C108.18 19.6975 107.968 18.7273 107.968 17.6351ZM116.372 17.6737C116.372 17.0184 116.244 16.4594 115.987 15.9968C115.73 15.5214 115.383 15.1616 114.946 14.9175C114.509 14.6605 114.04 14.532 113.539 14.532C113.038 14.532 112.575 14.654 112.151 14.8982C111.727 15.1423 111.38 15.5021 111.11 15.9775C110.853 16.4401 110.725 16.9927 110.725 17.6351C110.725 18.2776 110.853 18.843 111.11 19.3313C111.38 19.8067 111.727 20.1729 112.151 20.4299C112.588 20.6869 113.05 20.8154 113.539 20.8154C114.04 20.8154 114.509 20.6933 114.946 20.4492C115.383 20.1922 115.73 19.8324 115.987 19.3698C116.244 18.8944 116.372 18.329 116.372 17.6737Z" fill="#080037"/>
<path d="M101.727 12.1805C103.037 12.1805 104.091 12.5853 104.888 13.3948C105.697 14.1915 106.102 15.3094 106.102 16.7485V23.0127H103.404V17.1148C103.404 16.2795 103.192 15.6435 102.767 15.2066C102.343 14.7569 101.765 14.532 101.033 14.532C100.3 14.532 99.7157 14.7569 99.2788 15.2066C98.8548 15.6435 98.6428 16.2795 98.6428 17.1148V23.0127H95.9444V17.1148C95.9444 16.2795 95.7324 15.6435 95.3083 15.2066C94.8843 14.7569 94.3061 14.532 93.5736 14.532C92.8284 14.532 92.2373 14.7569 91.8004 15.2066C91.3764 15.6435 91.1643 16.2795 91.1643 17.1148V23.0127H88.4659V12.3347H91.1643V13.6261C91.5113 13.1764 91.9546 12.823 92.4943 12.566C93.0468 12.309 93.6507 12.1805 94.3061 12.1805C95.1413 12.1805 95.8866 12.3604 96.5419 12.7202C97.1972 13.0672 97.7048 13.5683 98.0646 14.2236C98.4115 13.6068 98.9126 13.1121 99.5679 12.7395C100.236 12.3669 100.956 12.1805 101.727 12.1805Z" fill="#080037"/>
<path d="M84.4697 11.0626C83.9943 11.0626 83.5959 10.9149 83.2747 10.6193C82.9663 10.3109 82.8121 9.93187 82.8121 9.48213C82.8121 9.0324 82.9663 8.65976 83.2747 8.36423C83.5959 8.05584 83.9943 7.90164 84.4697 7.90164C84.9451 7.90164 85.3371 8.05584 85.6454 8.36423C85.9667 8.65976 86.1273 9.0324 86.1273 9.48213C86.1273 9.93187 85.9667 10.3109 85.6454 10.6193C85.3371 10.9149 84.9451 11.0626 84.4697 11.0626ZM85.7996 12.3347V23.0127H83.1012V12.3347H85.7996Z" fill="#080037"/>
<path d="M78.5907 23.0127L76.3934 19.6975L74.4467 23.0127H71.5556L75.0442 17.6545L71.517 12.3347H74.5624L76.7403 15.6307L78.7063 12.3347H81.5975L78.0895 17.6545L81.636 23.0127H78.5907Z" fill="#080037"/>
<path d="M65.1431 23.1861C64.1152 23.1861 63.19 22.9613 62.3676 22.5115C61.5452 22.0489 60.8963 21.4 60.4209 20.5648C59.9583 19.7296 59.727 18.7659 59.727 17.6737C59.727 16.5815 59.9648 15.6178 60.4402 14.7825C60.9285 13.9473 61.5902 13.3048 62.4254 12.8551C63.2607 12.3925 64.1922 12.1612 65.2202 12.1612C66.2482 12.1612 67.1798 12.3925 68.015 12.8551C68.8502 13.3048 69.5055 13.9473 69.981 14.7825C70.4692 15.6178 70.7134 16.5815 70.7134 17.6737C70.7134 18.7659 70.4628 19.7296 69.9617 20.5648C69.4734 21.4 68.8052 22.0489 67.9572 22.5115C67.1219 22.9613 66.1839 23.1861 65.1431 23.1861ZM65.1431 20.8347C65.6314 20.8347 66.0876 20.719 66.5116 20.4877C66.9485 20.2436 67.2954 19.8838 67.5524 19.4084C67.8094 18.9329 67.9379 18.3547 67.9379 17.6737C67.9379 16.6586 67.6681 15.8812 67.1284 15.3415C66.6015 14.789 65.9526 14.5127 65.1817 14.5127C64.4107 14.5127 63.7618 14.789 63.235 15.3415C62.721 15.8812 62.464 16.6586 62.464 17.6737C62.464 18.6888 62.7145 19.4726 63.2157 20.0251C63.7297 20.5648 64.3721 20.8347 65.1431 20.8347Z" fill="#080037"/>
<path d="M55.3074 13.9923C55.6543 13.4269 56.104 12.9836 56.6566 12.6624C57.222 12.3412 57.8644 12.1805 58.584 12.1805V15.0139H57.8709C57.0228 15.0139 56.3803 15.213 55.9434 15.6114C55.5194 16.0097 55.3074 16.7036 55.3074 17.693V23.0127H52.609V12.3347H55.3074V13.9923Z" fill="#080037"/>
<path d="M50.6931 13.7225C50.6931 14.442 50.5197 15.1166 50.1727 15.7463C49.8386 16.3759 49.3054 16.8834 48.573 17.2689C47.8534 17.6544 46.9411 17.8472 45.836 17.8472H43.5809V23.0127H40.8825V9.5592H45.836C46.8768 9.5592 47.7634 9.7391 48.4959 10.0989C49.2283 10.4587 49.7744 10.9534 50.1342 11.583C50.5068 12.2126 50.6931 12.9258 50.6931 13.7225ZM45.7204 15.6692C46.4656 15.6692 47.0182 15.5021 47.3779 15.168C47.7377 14.8211 47.9176 14.3392 47.9176 13.7225C47.9176 12.4118 47.1852 11.7565 45.7204 11.7565H43.5809V15.6692H45.7204Z" fill="#080037"/>
</svg>
