<svg width="505" height="373" viewBox="0 0 505 373" fill="none" xmlns="http://www.w3.org/2000/svg">
<path d="M346.336 -85.0629C331.481 -125.208 274.7 -125.208 259.845 -85.063L229.387 -2.75243C229.74 -2.48074 230.09 -2.20072 230.437 -1.91225L319.412 71.9398C327.024 78.2586 337.018 80.9363 346.77 79.2704L404.206 69.459C402.926 67.2364 401.825 64.895 400.922 62.4537L346.336 -85.0629Z" fill="white"/>
<path d="M493.373 113.826C493.104 114.174 492.827 114.521 492.542 114.864L418.69 203.839C412.371 211.452 409.693 221.445 411.359 231.197L421.171 288.637C423.39 287.361 425.728 286.262 428.165 285.36L575.682 230.774C615.827 215.919 615.827 159.138 575.682 144.283L493.373 113.826Z" fill="white"/>
<path d="M376.798 377.796C376.452 377.529 376.107 377.253 375.765 376.969L286.79 303.117C279.178 296.798 269.184 294.121 259.432 295.786L201.977 305.601C203.256 307.823 204.356 310.163 205.259 312.603L259.845 460.12C274.7 500.265 331.481 500.265 346.336 460.12L376.798 377.796Z" fill="white"/>
<path d="M112.824 261.237C113.095 260.886 113.373 260.538 113.66 260.192L187.513 171.218C193.831 163.605 196.509 153.612 194.843 143.86L185.029 86.4082C182.804 87.6898 180.46 88.7924 178.016 89.6969L30.4991 144.283C-9.64617 159.138 -9.64632 215.919 30.499 230.774L112.824 261.237Z" fill="white"/>
</svg>
